<svg width="16" height="16" viewBox="0 0 16 16" fill="none" xmlns="http://www.w3.org/2000/svg">
<g clip-path="url(#clip0_1_59)">
<path d="M5.7879 14.5566C6.16349 15.4057 7.01349 16 8.00011 16C8.98674 16 9.8367 15.4057 10.2123 14.5566H5.7879Z" fill="#009688"/>
<path d="M7.99985 1.52864C8.65093 1.52864 9.27608 1.64352 9.85622 1.85384V1.78238C9.85622 0.799568 9.05666 0 8.07388 0H7.92617C6.94336 0 6.1438 0.799568 6.1438 1.78238V1.85293C6.72363 1.64324 7.34859 1.52864 7.99985 1.52864Z" fill="#009688"/>
<path d="M13.8586 13.6176H2.14127C1.91959 13.6176 1.71654 13.4681 1.67043 13.2512C1.62479 13.0365 1.72264 12.8246 1.92115 12.7329C1.96826 12.7023 2.32285 12.4544 2.67784 11.7043C3.32982 10.3267 3.46667 8.38613 3.46667 7.00078C3.46667 4.50119 5.50024 2.46768 7.9998 2.46768C10.4934 2.46768 12.5233 4.49139 12.5329 6.98278C12.5331 6.98876 12.5332 6.99477 12.5332 7.00078C12.5332 8.38613 12.6701 10.3267 13.3221 11.7043C13.6771 12.4544 14.0316 12.7024 14.0788 12.7329C14.2773 12.8246 14.3752 13.0365 14.3295 13.2512C14.2834 13.468 14.0804 13.6176 13.8586 13.6176ZM14.084 12.7362H14.0843H14.084Z" fill="#009688"/>
</g>
<defs>
<clipPath id="clip0_1_59">
<rect width="16" height="16" fill="white"/>
</clipPath>
</defs>
</svg>
