<svg width="50" height="50" viewBox="0 0 60 60" fill="none" xmlns="http://www.w3.org/2000/svg">
<rect width="60" height="60" rx="30" fill="#009688"/>
<path d="M30.609 15C31.0588 15.1089 31.5257 15.1799 31.9585 15.3329C34.5558 16.2577 36.1274 18.4888 36.1382 21.2795C36.1508 24.5249 36.1508 27.7705 36.1382 31.0164C36.1256 33.7739 34.5639 36.0023 32.0358 36.9271C29.4269 37.8826 26.3303 36.812 24.8386 34.454C24.1781 33.4077 23.8344 32.1926 23.849 30.9553C23.849 27.73 23.8382 24.5048 23.849 21.2795C23.8598 18.4906 25.4306 16.2577 28.0279 15.3329C28.4633 15.1781 28.9276 15.1089 29.3774 15H30.609Z" fill="#F9FBFB"/>
<path d="M28.8963 44.0541C28.8963 43.0933 28.8963 42.1703 28.8846 41.2463C28.8846 41.1861 28.7281 41.088 28.6345 41.0745C27.3817 40.9075 26.1735 40.4981 25.0773 39.869C22.5124 38.3783 20.8939 36.1804 20.2435 33.2908C20.0906 32.6106 20.0438 31.9026 20.0024 31.2045C19.9619 30.5441 20.4387 30.0619 21.0721 30.043C21.6892 30.025 22.1634 30.4623 22.1903 31.1226C22.2407 32.3884 22.5079 33.5903 23.0783 34.732C24.5249 37.6289 27.9985 39.4102 31.1823 38.8353C34.2609 38.282 36.3247 36.5115 37.3953 33.5795C37.6805 32.7978 37.7552 31.9773 37.801 31.1505C37.8415 30.4488 38.3165 30.0034 38.9535 30.043C39.5904 30.0826 40.025 30.5684 39.9989 31.263C39.8666 34.7716 38.3795 37.5524 35.4647 39.5334C34.2466 40.3577 32.8494 40.8796 31.3892 41.0556C31.1562 41.0853 31.0897 41.1645 31.0933 41.3957C31.1068 42.2684 31.0987 43.141 31.0987 44.0506H31.4513C32.6721 44.0506 33.893 44.0425 35.1138 44.0559C35.8884 44.0649 36.3805 44.7577 36.1574 45.4909C36.0179 45.9497 35.6176 46.2457 35.0949 46.2511C34.3014 46.2592 33.5079 46.2511 32.7144 46.2511H24.9919C24.4116 46.2511 24.0022 45.9812 23.8448 45.5179C23.7833 45.3522 23.7632 45.1739 23.7862 44.9987C23.8091 44.8234 23.8745 44.6564 23.9766 44.5121C24.0787 44.3678 24.2144 44.2506 24.3721 44.1707C24.5297 44.0907 24.7045 44.0504 24.8812 44.0532C26.0813 44.0389 27.2824 44.0488 28.4798 44.0479L28.8963 44.0541Z" fill="#F9FBFB"/>
</svg>
