<svg width="50" height="50" viewBox="0 0 60 60" fill="none" xmlns="http://www.w3.org/2000/svg">
<rect width="60" height="60" rx="30" fill="#DA2727"/>
<g clip-path="url(#clip0_4736_1866)">
<path d="M18 31.2561L18.0153 33.2224L18.0168 33.2255C18.0214 33.6743 18.387 33.9949 18.7969 33.9919L18.8015 33.9949L24.3838 33.9499C24.8151 33.9468 25.1524 33.5965 25.1471 33.172L25.1311 31.2042L24.8601 31.2057C24.9448 30.3889 25.9372 30.1958 27.9134 29.9775L32.6698 29.9378C33.8148 30.0492 34.9239 30.2546 35.004 31.1439L34.8521 31.1454L34.8682 33.1095L34.8689 33.1117C34.8727 33.5652 35.2399 33.8842 35.6498 33.8797L35.6544 33.8842L41.2359 33.8369C41.6672 33.8362 42.0031 33.4843 42 33.0591L41.984 31.0935L41.7824 31.095C41.5855 29.8996 39.6123 26.0402 30.292 26.0051C20.6175 25.9685 18.3527 29.9729 18.2366 31.2546L18 31.2561Z" fill="white"/>
</g>
<defs>
<clipPath id="clip0_4736_1866">
<rect width="24" height="24" fill="white" transform="translate(18 18)"/>
</clipPath>
</defs>
</svg>
