<svg width="50" height="50" viewBox="0 0 60 60" fill="none" xmlns="http://www.w3.org/2000/svg">
<rect x="0.5" y="0.5" width="59" height="59" rx="29.5" stroke="white"/>
<g clip-path="url(#clip0_4736_1718)">
<path d="M15 19.8057C15.1384 19.2364 15.3185 18.6894 15.6996 18.2242C16.3098 17.48 17.0861 17.0677 18.0483 17.0119C18.1689 17.0045 18.2895 17.0007 18.41 17.0007C23.7848 17.0007 29.1596 17.0035 34.5344 17.0089C34.7785 17.0089 35.0732 17.0722 35.2511 17.2188C35.4314 17.3869 35.5383 17.6192 35.5488 17.8655C35.5667 21.4304 35.5748 24.9959 35.554 28.5608C35.5443 30.2792 34.0752 31.6635 32.3002 31.6687C29.4878 31.6768 26.6754 31.6687 23.8622 31.6687C23.3331 31.6687 22.8039 31.6739 22.2748 31.6687C21.7701 31.6617 21.277 31.8203 20.8712 32.1204C19.4219 33.1564 17.9719 34.1911 16.5212 35.2246C15.8469 35.7046 15.4093 35.6123 15.0015 34.9068L15 19.8057ZM25.8381 23.2187H27.759C28.7146 23.2187 29.6702 23.2232 30.6257 23.2187C31.1757 23.215 31.5486 22.8072 31.4935 22.2922C31.4459 21.8412 31.0782 21.5479 30.5416 21.5479C28.1299 21.5479 25.7178 21.5479 23.3055 21.5479C22.5732 21.5479 21.8404 21.5479 21.1071 21.5479C20.7454 21.5479 20.4529 21.673 20.2766 22.0027C19.9707 22.5727 20.374 23.2143 21.0513 23.2172C22.6462 23.2225 24.2418 23.2172 25.8381 23.218V23.2187ZM25.8128 27.1192H28.0113C28.8932 27.1192 29.7744 27.1259 30.6555 27.1192C30.7743 27.1222 30.8923 27.0995 31.0015 27.0526C31.1106 27.0057 31.2083 26.9357 31.2879 26.8475C31.3674 26.7592 31.4269 26.6548 31.4623 26.5414C31.4977 26.428 31.5081 26.3082 31.4928 26.1904C31.4429 25.7439 31.0753 25.4514 30.5379 25.4514C27.9778 25.4514 25.4174 25.4514 22.8568 25.4514C22.2614 25.4514 21.666 25.4514 21.0759 25.4514C20.7246 25.4514 20.4433 25.5883 20.2743 25.9076C19.9714 26.4784 20.3755 27.117 21.0535 27.12C22.6402 27.1229 24.2262 27.1185 25.8128 27.1185V27.1192Z" fill="white"/>
<path d="M22.9671 33.3417H23.3228C26.3042 33.3417 29.285 33.3417 32.2654 33.3417C34.3849 33.3372 36.2165 32.0966 36.9094 30.1482C37.0982 29.6061 37.2022 29.038 37.2175 28.464C37.2584 26.9138 37.2316 25.3621 37.2324 23.8111V23.4822C37.626 23.4822 37.9944 23.4777 38.3628 23.4822C39.1815 23.4948 40.0001 23.4428 40.8091 23.544C42.372 23.7404 43.5203 25.1068 43.5248 26.6928C43.533 29.4047 43.5248 32.1167 43.5248 34.8286C43.5248 36.8909 43.5248 38.9524 43.5248 41.0146C43.5248 41.3972 43.4303 41.7172 43.0782 41.9025C42.7262 42.0878 42.3883 41.9866 42.0683 41.7537C40.6297 40.7177 39.1807 39.6966 37.7436 38.6584C37.2695 38.3105 36.6944 38.1275 36.1063 38.1375C32.8566 38.1439 29.6068 38.1439 26.357 38.1375C24.3416 38.1375 22.9685 36.7621 22.9663 34.7445C22.9663 34.298 22.9671 33.8433 22.9671 33.3417Z" fill="white"/>
</g>
<defs>
<clipPath id="clip0_4736_1718">
<rect width="28.5306" height="25" fill="white" transform="translate(15 17)"/>
</clipPath>
</defs>
</svg>
