<svg width="50" height="50" viewBox="0 0 60 60" fill="none" xmlns="http://www.w3.org/2000/svg">
<rect width="60" height="60" rx="30" fill="#009688"/>
<path d="M22.0615 46.0461C21.8773 45.9882 21.7208 45.875 21.6189 45.7259C21.517 45.5767 21.476 45.4009 21.5029 45.2285C21.5114 44.969 21.5199 44.7095 21.5291 44.4301C21.5466 43.8952 21.8265 43.6726 22.4248 43.6922L27.7197 43.8659L27.7721 42.2691C25.9944 41.9917 24.3234 41.3092 22.9208 40.2876L24.8374 38.6761C25.5789 39.1368 26.395 39.4925 27.2565 39.7305C29.1255 40.213 31.122 40.072 32.8732 39.3338C34.6245 38.5956 36.0109 37.3107 36.7736 35.7188C37.1588 34.8751 37.3701 33.9749 37.3971 33.0617C37.4188 32.3991 37.4406 31.7364 37.4626 31.0657C37.4803 30.5268 37.77 30.2766 38.3817 30.2966C38.7076 30.3073 39.0335 30.318 39.3594 30.3287C39.8282 30.3441 40.1197 30.5855 40.1109 30.9888C40.061 32.5098 40.1359 34.0428 39.6358 35.525C39.0451 37.3237 37.8752 38.9237 36.2715 40.1262C34.7347 41.3288 32.8283 42.0914 30.7962 42.3164C30.698 42.3132 30.5985 42.3498 30.4816 42.37L30.4292 43.9668L35.6214 44.1371C36.3536 44.1611 36.5833 44.3805 36.5665 45.0273C36.5589 45.2589 36.5513 45.4904 36.5439 45.7179C36.5594 45.8917 36.507 46.0645 36.3955 46.2067C36.284 46.3488 36.1205 46.4515 35.9328 46.4972L22.0615 46.0461Z" fill="#F9FBFB"/>
<path d="M21.6497 34.0757C22.1733 33.6453 22.7013 33.2191 23.2076 32.7721C23.2904 32.6989 23.287 32.5309 23.2911 32.4072C23.4161 28.5948 23.5411 24.7865 23.6662 20.9741C23.6602 20.2377 23.8219 19.5091 24.1414 18.8325C24.461 18.1559 24.9317 17.5456 25.5249 17.0388C27.3363 15.4997 29.4826 15.0586 31.8223 15.8068C32.9218 16.123 33.8951 16.7213 34.6206 17.5269C35.3461 18.3326 35.7917 19.3098 35.9017 20.3365C35.9642 20.9314 35.9908 21.5285 35.9815 22.1255C36.0871 22.041 36.1741 21.9759 36.257 21.9027L40.4435 18.3995C40.6175 18.2286 40.8279 18.0904 41.0625 17.993C41.2972 17.8956 41.5514 17.8408 41.8105 17.8318C42.0697 17.8229 42.3286 17.8599 42.5724 17.9408C42.8162 18.0217 43.04 18.1448 43.231 18.3031C43.6043 18.6061 43.8329 19.0256 43.8691 19.4738C43.9052 19.922 43.7459 20.3641 43.4248 20.7072C43.3183 20.8196 43.1985 20.9276 43.0789 21.0316C34.9426 27.8194 26.806 34.6139 18.6693 41.415C17.7502 42.1841 16.667 42.2325 15.831 41.5577C15.643 41.4091 15.4893 41.229 15.3787 41.0278C15.2681 40.8266 15.2028 40.6081 15.1864 40.3849C15.1701 40.1617 15.2031 39.9381 15.2835 39.7269C15.3639 39.5157 15.4902 39.3211 15.6551 39.1541C16.3056 38.5361 17.0346 37.9766 17.7108 37.3913C18.2254 36.9606 18.7358 36.5257 19.2592 36.1033C19.3226 36.0653 19.3689 36.0083 19.3899 35.9425C19.4108 35.8767 19.4051 35.8062 19.3738 35.7434C18.9307 34.5376 18.7493 33.2687 18.8394 32.0053C18.8562 31.4944 18.8731 30.9794 18.8898 30.4684C18.9066 29.9575 19.1966 29.6992 19.8089 29.6993C20.1125 29.7093 20.4161 29.7193 20.7018 29.7286C20.8175 29.7187 20.9343 29.7328 21.0433 29.7696C21.1524 29.8064 21.2507 29.8651 21.3306 29.9411C21.4106 30.0171 21.4702 30.1084 21.5047 30.2079C21.5392 30.3074 21.5477 30.4125 21.5297 30.5151C21.5099 31.1179 21.4904 31.7127 21.4705 32.3195C21.4506 32.9263 21.5001 33.4594 21.5171 34.0314L21.6497 34.0757Z" fill="#F9FBFB"/>
<path d="M35.7061 29.5655L35.6668 30.7631C35.6337 31.7731 35.6004 32.787 35.5671 33.801C35.4575 35.0724 34.854 36.2662 33.8611 37.1758C32.8681 38.0855 31.5482 38.6536 30.1299 38.7818C28.6279 38.9477 27.1081 38.5855 25.8904 37.7715L35.7061 29.5655Z" fill="#F9FBFB"/>
</svg>
